<svg width="681" height="307" viewBox="0 0 681 307" fill="none" xmlns="http://www.w3.org/2000/svg">
<path d="M158.426 168.819C158.549 152.378 145.525 104.045 141.935 86.0334C138.468 68.6924 149.621 68.6924 151.676 68.7687C164.654 68.0824 165.483 76.3945 165.636 83.5169C165.743 92.6678 158.763 101.27 165.283 109.048C172.033 117.086 214.373 104.625 218.147 94.6505C224.636 77.279 201.916 49.9026 180.21 41.2397C161.31 33.6139 141.766 32.6226 122.023 41.9565C112.558 46.4252 100.255 57.4673 96.3428 68.5094C88.9026 89.4803 111.085 96.4045 118.249 125.337C127.315 161.94 122.943 198.071 106.774 208.091C96.895 214.192 91.4338 209.617 93.8269 201.991C97.1405 191.315 107.158 177.085 109.996 145.56C113.141 110.817 85.7118 94.7725 69.6502 93.0949C52.7756 91.2952 39.6901 96.5112 26.7733 105.815C13.8566 115.118 3.1642 132.169 1.33868 143.211C-1.53001 160.202 0.14211 175.529 7.03002 184.604C19.0263 200.435 42.1139 194.624 47.0842 190.156C68.4843 170.984 40.2884 151.493 59.5254 138.392C66.2599 133.816 74.5899 134.167 77.1824 137.98C81.9226 144.935 77.75 155.138 76.2313 159.836C73.0302 169.851 69.8189 179.871 66.5974 189.896C63.5293 199.505 59.5101 209.235 58.7124 219.24C58.2198 223.967 58.9038 228.741 60.7042 233.143C62.5045 237.544 65.366 241.438 69.0366 244.482C74.4714 248.824 80.8163 251.901 87.6045 253.484C94.3928 255.068 101.452 255.119 108.262 253.632C127.806 248.813 139.803 231.365 147.427 216.388C154.748 201.609 158.514 185.339 158.426 168.864" fill="white"/>
<path d="M255.182 276.721C252.881 276.218 247.895 275.196 244.275 264.199C241.069 254.499 249.245 192.655 247.343 170.479C246.009 154.343 239.673 126.402 222.031 118.227C205.755 110.693 172.711 121.277 169.72 139.32C168.616 145.954 169.72 152.634 169.72 159.299C169.726 163.896 169.367 168.486 168.646 173.026C167.009 184.455 164.235 195.695 160.362 206.579C158.235 212.718 155.745 218.728 152.907 224.576C151.572 227.321 150.161 230.036 148.627 232.705C147.844 234.062 147.093 235.405 146.218 236.747L145.221 238.272L144.209 239.797C141.079 244.367 137.418 248.555 133.302 252.273C132.335 253.127 131.353 253.95 130.31 254.743C129.865 255.079 127.656 256.482 128.07 256.269C126.246 257.316 124.331 258.199 122.348 258.907C115.645 261.302 119.464 269.964 123.698 272.084C139.791 280.122 155.653 272.42 164.719 263.925C168.907 259.97 174.382 257.638 180.152 257.351L192.838 256.726C194.421 256.644 196.003 256.902 197.476 257.484C198.948 258.066 200.277 258.957 201.371 260.097C202.465 261.237 203.299 262.598 203.814 264.088C204.33 265.578 204.516 267.161 204.359 268.729C203.101 281.418 201.291 290.966 218.81 297.387C233.552 302.771 264.371 300.04 266.212 293.955C269.28 283.676 264.034 278.704 255.121 276.736L255.182 276.721ZM205.049 138.176C205.556 138.283 205.387 138.176 205.049 138.176V138.176ZM205.479 137.963H205.356C205.678 137.749 205.878 137.642 205.479 137.963ZM198.76 136.559C198.161 135.965 198.438 136.224 198.76 136.559V136.559ZM194.618 233.773C188.482 235.069 183.204 229.624 185.966 224.728C192.424 213.244 194.587 202.171 198.407 185.654C199.634 180.362 206.231 179.431 206.66 186.401C207.872 205.923 209.023 205.695 208.792 225.217C208.792 229.243 201.966 232.232 194.618 233.773Z" fill="white"/>
<path d="M379.678 118.808C390.02 114.92 400.975 112.89 412.032 112.814C422.141 112.814 428.906 106.851 428.906 93.1245C428.906 77.5527 421.236 49.0476 415.222 38.219C407.813 24.9655 397.259 12.7032 371.548 3.90312C351.038 -3.11258 311.827 -0.672336 300.383 11.2391C290.626 21.4119 282.251 28.4428 290.059 62.4537C297.576 95.2445 330.773 134.563 331.034 176.84C331.11 191.863 317.825 187.638 307.179 162.595C299.984 145.666 306.412 129.682 284.506 85.514C264.962 46.1498 286.899 26.6736 266.434 11.2849C243.316 0.60879 200.808 21.6101 196.466 24.4164C185.866 31.2949 203.047 44.945 205.149 47.37C277.019 130.262 255.374 222.61 253.656 244.587C253.196 250.475 253.656 261.959 260.989 268.136C277.111 281.679 293.971 271.567 294.63 258.161C295.781 235.376 284.322 226.301 288.034 183.825C290.263 188.279 292.432 192.758 294.538 197.262C299.585 208.121 303.098 233.698 304.955 254.745C307.332 281.679 310.416 291.501 318.209 299.401C329.193 310.566 348.66 308.171 349.181 300.301C379.924 96.0528 334.961 97.6695 327.996 45.0517C325.189 23.8369 345.945 25.1027 352.71 35.2755C367.866 58.1528 359.521 92.7432 360.825 103.099C361.761 110.435 365.427 123.963 379.678 118.808Z" fill="white"/>
<path d="M465.201 186.725C464.112 99.0896 515.948 87.773 502.847 28.6886C500.285 17.1127 489.148 16.3043 475.74 13.6658C463.468 11.2561 440.288 9.38014 432.587 24.0064C422.954 42.3082 429.596 54.6009 433.4 75.3582C435.947 89.3286 436.959 99.7607 431.345 116.232C429.98 120.228 425.209 122.653 420.468 121.814C411.297 120.127 401.838 120.928 393.086 124.133C384.633 127.351 379.54 134.504 376.472 141.641C372.069 151.875 370.78 163.085 369.921 173.883C368.832 187.457 368.602 201.061 367.467 214.635C366.408 227.324 365.12 240.075 365.457 252.764C365.733 262.891 367.099 273.552 372.775 282.626C380.583 295.072 398.669 304.39 415.36 300.791C422.831 299.174 428.998 295.194 434.904 291.152C437.573 289.322 440.15 287.431 442.789 285.601L444.476 284.441C444.476 284.441 445.872 283.557 446.01 283.42C446.885 282.916 447.759 282.428 448.664 281.986C449.002 283.313 449.339 284.64 449.707 285.951C451.242 291.808 458.037 296.017 464.266 297.39C483.365 301.569 487.875 289.84 488.212 283.526C489.746 255.067 465.938 248.631 465.201 186.679V186.725ZM396.921 285.265C396.506 285.265 396.276 285.265 396.921 285.265V285.265ZM434.444 241.798C427.678 244.513 415.176 247.319 410.865 235.24C406.554 223.161 409.162 203.73 411.433 194.152C414.731 180.029 421.481 176.979 427.801 178.504C436.668 180.533 438.54 198.225 440.856 216.633C442.743 231.336 440.457 239.266 434.413 241.691" fill="white"/>
<path d="M680.753 158.204C680.753 131.986 656.438 120.075 641.312 124.65C612.012 133.542 627.705 162.306 633.381 178.137C637.385 189.317 627.751 198.712 622.996 202.54C619.437 205.377 616.016 207.954 612.457 210.532C611.199 211.453 609.701 211.996 608.141 212.096C606.582 212.196 605.026 211.849 603.659 211.096C602.292 210.342 601.172 209.215 600.431 207.847C599.69 206.479 599.359 204.928 599.479 203.379C599.97 196.821 600.461 190.461 600.645 188.402C602.47 167.461 604.25 146.46 603.866 125.443C603.467 104.198 601.289 81.8241 590.167 62.4699C587.856 58.9496 584.716 56.0437 581.018 54.005C577.321 51.9663 573.178 50.8564 568.951 50.772C546.615 50.772 534.803 74.9609 535.938 86.6741C536.981 97.5026 548.671 103.557 556.771 124.681C568.445 155.062 566.343 227.659 567.279 234.08C567.582 237.082 568.594 239.971 570.234 242.51C571.873 245.049 574.094 247.167 576.713 248.691C582.942 252.382 593.342 254.914 600.522 251.741C603.314 250.521 640.407 223.48 658.172 207.619C661.838 204.355 680.738 182.667 680.768 158.188" fill="white"/>
<path d="M569.507 260.097C568.341 258.611 567.315 257.024 566.438 255.354C566.009 254.545 565.625 253.722 565.257 252.898C565.886 254.256 564.628 251.236 564.444 250.672C562.872 245.92 561.717 241.041 560.993 236.091C559.345 224.359 558.423 212.537 558.231 200.692C557.817 188.613 557.618 176.534 556.697 164.485C555.93 154.236 554.902 143.697 551.282 133.845C547.662 123.992 541.403 115.421 530.097 110.647C518.361 105.706 503.159 104.806 492.957 112.66C485.179 118.639 481.314 128.553 478.782 136.941C475.301 149.443 473.536 162.356 473.536 175.329C472.922 209.614 481.068 245.791 501.486 275.638C505.184 281.053 514.066 283.752 521.092 283.569C526.323 283.432 536.187 278.551 532.459 273.091C522.763 258.686 515.734 242.675 511.703 225.812C510.537 221.099 509.51 218.018 513.237 214.83C513.432 214.647 513.631 214.48 513.836 214.327C515.224 213.303 516.861 212.665 518.58 212.48C520.299 212.296 522.036 212.57 523.612 213.276C525.188 213.982 526.546 215.093 527.546 216.495C528.546 217.897 529.151 219.539 529.299 221.251C529.636 224.729 530.051 228.191 530.588 231.653C532.122 241.46 532.705 253.341 539.286 261.683C543.458 266.975 553.276 268.714 560.64 268.516C565.472 268.394 573.756 265.374 569.553 260.036L569.507 260.097ZM509.387 201.973C505.782 202.949 503.343 199.503 502.315 193.173C501.274 186.608 501.704 179.895 503.573 173.514C505.276 168.39 508.436 164.805 514.311 164.653C521.138 164.455 525.203 166.758 525.97 176.32C526.354 181.262 526.522 184.526 526.599 187.53C526.752 193.631 523.7 198.45 517.794 199.869C515.278 200.479 513.191 200.967 509.418 201.973" fill="white"/>
</svg>
