<svg width="1920" height="1080" viewBox="0 0 1920 1080" xmlns="http://www.w3.org/2000/svg">
<path d="M529.427 730.682C530.372 604.204 430.156 232.394 402.534 93.8304C375.857 -39.5707 461.672 -39.5707 477.49 -38.984C577.352 -44.2638 583.726 19.6795 584.907 74.4713C585.733 144.868 532.024 211.04 582.192 270.877C634.129 332.708 959.92 236.852 988.958 160.12C1038.89 26.4845 864.072 -184.118 697.045 -250.76C551.619 -309.423 401.236 -317.05 249.318 -245.245C176.487 -210.868 81.8189 -125.924 51.7186 -40.9787C-5.53094 120.346 165.155 173.613 220.28 396.183C290.042 677.768 256.4 955.716 131.986 1032.8C55.9681 1079.73 13.9457 1044.53 32.36 985.869C57.8567 903.74 134.937 794.274 156.774 551.758C180.973 284.487 -30.0833 161.059 -153.672 148.153C-283.516 134.308 -384.204 174.434 -483.594 246.004C-582.984 317.573 -665.258 448.745 -679.305 533.69C-701.378 664.393 -688.512 782.306 -635.512 852.116C-543.204 973.902 -365.554 929.2 -327.309 894.823C-162.643 747.343 -379.601 597.399 -231.578 496.615C-179.758 461.416 -115.662 464.115 -95.7137 493.447C-59.2392 546.948 -91.3462 625.44 -103.032 661.577C-127.663 738.621 -152.373 815.706 -177.161 892.829C-200.77 966.745 -231.696 1041.6 -237.834 1118.57C-241.624 1154.93 -236.361 1191.65 -222.508 1225.51C-208.655 1259.38 -186.637 1289.33 -158.393 1312.74C-116.574 1346.15 -67.7524 1369.82 -15.5189 1382C36.7145 1394.18 91.031 1394.57 143.436 1383.14C293.819 1346.06 386.127 1211.84 444.793 1096.63C501.129 982.929 530.103 857.771 529.427 731.034"/>
<path d="M1274.02 1560.77C1256.31 1556.9 1217.95 1549.04 1190.09 1464.45C1165.42 1389.83 1228.33 914.066 1213.7 743.472C1203.43 619.34 1154.68 404.397 1018.93 341.509C893.69 283.55 639.432 364.975 616.414 503.773C607.915 554.81 616.414 606.2 616.414 657.472C616.462 692.831 613.699 728.139 608.151 763.066C595.557 850.992 574.205 937.457 544.409 1021.19C528.037 1068.41 508.882 1114.64 487.042 1159.63C476.772 1180.75 465.913 1201.64 454.109 1222.17C448.089 1232.61 442.305 1242.93 435.576 1253.26L427.904 1264.99L420.113 1276.72C396.029 1311.88 367.859 1344.1 336.186 1372.7C328.75 1379.27 321.195 1385.6 313.169 1391.71C309.745 1394.29 292.748 1405.08 295.935 1403.44C281.895 1411.49 267.16 1418.28 251.906 1423.74C200.322 1442.16 229.714 1508.8 262.293 1525.11C386.117 1586.94 508.171 1527.69 577.933 1462.34C610.161 1431.91 652.29 1413.97 696.681 1411.77L794.301 1406.96C806.478 1406.32 818.65 1408.31 829.983 1412.79C841.315 1417.26 851.541 1424.12 859.96 1432.89C868.378 1441.66 874.791 1452.13 878.759 1463.59C882.727 1475.05 884.156 1487.23 882.949 1499.29C873.27 1596.91 859.341 1670.36 994.143 1719.75C1107.58 1761.17 1344.72 1740.17 1358.89 1693.35C1382.5 1614.27 1342.13 1576.03 1273.54 1560.89L1274.02 1560.77ZM888.261 494.973C892.156 495.795 890.858 494.973 888.261 494.973V494.973ZM891.566 493.331H890.621C893.1 491.688 894.635 490.867 891.566 493.331ZM839.864 482.537C835.26 477.961 837.385 479.955 839.864 482.537V482.537ZM807.993 1230.38C760.777 1240.35 720.171 1198.47 741.419 1160.81C791.114 1072.46 807.757 987.278 837.149 860.213C846.592 819.5 897.35 812.343 900.655 865.962C909.98 1016.14 918.833 1014.38 917.062 1164.56C917.062 1195.53 864.535 1218.53 807.993 1230.38Z"/>
<path d="M2231.81 345.969C2311.39 316.057 2395.68 300.444 2480.76 299.859C2558.54 299.859 2610.6 253.984 2610.6 148.39C2610.6 28.5989 2551.58 -190.686 2505.31 -273.988C2448.29 -375.945 2367.08 -470.276 2169.25 -537.974C2011.43 -591.945 1709.72 -573.172 1621.66 -481.54C1546.58 -403.282 1482.13 -349.195 1542.22 -87.5549C1600.06 164.699 1855.5 467.168 1857.5 792.399C1858.09 907.966 1755.87 875.467 1673.95 682.815C1618.59 552.582 1668.05 429.623 1499.49 89.8437C1349.1 -212.978 1517.9 -362.805 1360.44 -481.188C1182.55 -563.317 855.459 -401.757 822.054 -380.169C740.488 -327.254 872.693 -222.247 888.865 -203.592C1441.88 434.082 1275.33 1144.5 1262.11 1313.57C1258.57 1358.85 1262.11 1447.2 1318.53 1494.72C1442.59 1598.91 1572.32 1521.12 1577.39 1417.99C1586.25 1242.7 1498.07 1172.89 1526.64 846.135C1543.79 880.394 1560.47 914.849 1576.69 949.5C1615.52 1033.04 1642.55 1229.79 1656.83 1391.71C1675.13 1598.91 1698.86 1674.46 1758.82 1735.24C1843.34 1821.12 1993.13 1802.7 1997.14 1742.16C2233.7 170.917 1887.72 183.354 1834.13 -221.425C1812.53 -384.627 1972.24 -374.889 2024.29 -296.632C2140.92 -120.641 2076.7 145.457 2086.74 225.122C2093.94 281.556 2122.15 385.626 2231.81 345.969Z"/>
</svg>
